<svg width="10" height="11" viewBox="0 0 10 11" fill="none" xmlns="http://www.w3.org/2000/svg">
<g id="Star Filled" clip-path="url(#clip0_28_9189)">
<mask id="mask0_28_9189" style="mask-type:alpha" maskUnits="userSpaceOnUse" x="-1" y="0" width="11" height="10">
<path id="Shape" d="M9.67672 3.47766L6.6789 3.04197L5.33879 0.325161C5.30219 0.250776 5.24197 0.19056 5.16759 0.153958C4.98104 0.0618627 4.75434 0.138609 4.66106 0.325161L3.32096 3.04197L0.323138 3.47766C0.240488 3.48946 0.164923 3.52843 0.107068 3.58746C0.0371247 3.65935 -0.0014172 3.75607 -8.88382e-05 3.85636C0.00123952 3.95665 0.0423295 4.05231 0.114152 4.12232L2.28312 6.23697L1.77069 9.22299C1.75867 9.29245 1.76636 9.36389 1.79288 9.4292C1.81939 9.49452 1.86368 9.5511 1.92072 9.59252C1.97776 9.63395 2.04526 9.65856 2.11557 9.66358C2.18589 9.66859 2.2562 9.6538 2.31854 9.62089L4.99993 8.21112L7.68132 9.62089C7.75452 9.65985 7.83954 9.67284 7.921 9.65867C8.12645 9.62325 8.26459 9.42843 8.22917 9.22299L7.71674 6.23697L9.8857 4.12232C9.94474 4.06447 9.9837 3.9889 9.99551 3.90625C10.0274 3.69963 9.88334 3.50835 9.67672 3.47766Z" fill="#006FFD"/>
</mask>
<g mask="url(#mask0_28_9189)">
<rect id="Fill" y="0.11499" width="10" height="10" fill="#FD7900"/>
</g>
</g>
<defs>
<clipPath id="clip0_28_9189">
<rect width="10" height="10" fill="white" transform="translate(0 0.11499)"/>
</clipPath>
</defs>
</svg>
